<?xml version="1.0" encoding="UTF-8" standalone="no"?>
<!-- Created with Inkscape (http://www.inkscape.org/) -->

<svg
   width="32"
   height="32"
   viewBox="0 0 8.4666668 8.4666668"
   version="1.1"
   id="svg1"
   inkscape:version="1.4 (e7c3feb1, 2024-10-09)"
   sodipodi:docname="LinkedSlidesIcon.svg"
   inkscape:export-filename="LinkedSlidesIcon32x32.png"
   inkscape:export-xdpi="96"
   inkscape:export-ydpi="96"
   xmlns:inkscape="http://www.inkscape.org/namespaces/inkscape"
   xmlns:sodipodi="http://sodipodi.sourceforge.net/DTD/sodipodi-0.dtd"
   xmlns="http://www.w3.org/2000/svg"
   xmlns:svg="http://www.w3.org/2000/svg">
  <sodipodi:namedview
     id="namedview1"
     pagecolor="#ffffff"
     bordercolor="#000000"
     borderopacity="0.25"
     inkscape:showpageshadow="2"
     inkscape:pageopacity="0.0"
     inkscape:pagecheckerboard="true"
     inkscape:deskcolor="#d1d1d1"
     inkscape:document-units="px"
     inkscape:zoom="24.3125"
     inkscape:cx="16.020566"
     inkscape:cy="16"
     inkscape:window-width="1712"
     inkscape:window-height="955"
     inkscape:window-x="0"
     inkscape:window-y="39"
     inkscape:window-maximized="0"
     inkscape:current-layer="svg1" />
  <defs
     id="defs1" />
  <rect
     style="fill:#ffffff;fill-opacity:1;stroke:none;stroke-width:0.973667;stroke-linejoin:round;stroke-opacity:1;paint-order:stroke fill markers"
     id="rect5"
     width="8.4666662"
     height="8.4666662"
     x="0"
     y="5.1102163e-09"
     rx="0.52916664"
     ry="0.52916664" />
  <g
     inkscape:label="Layer 1"
     inkscape:groupmode="layer"
     id="layer1">
    <g
       id="g4"
       transform="matrix(1.3062882,0,0,1.3062882,-1.2515465,-1.7849994)">
      <g
         id="g15"
         transform="matrix(1.3396737,0,0,1.3396737,0.16882515,-2.558879)">
        <rect
           style="fill:#f0b100;fill-opacity:1;stroke-width:0.206375;stroke-linejoin:round;paint-order:stroke fill markers"
           id="rect1"
           width="4.2333336"
           height="2.3812501"
           x="0.89153081"
           y="5.0846014"
           rx="0"
           ry="0" />
        <g
           id="g5"
           transform="translate(-5.9604644e-8,0.01725459)">
          <rect
             style="fill:#ffffff;fill-opacity:1;stroke-width:0.262031;stroke-linejoin:round;paint-order:stroke fill markers"
             id="rect2"
             width="3.7041667"
             height="0.37797621"
             x="1.1561143"
             y="5.3031707"
             rx="0"
             ry="0" />
          <g
             id="g2"
             transform="translate(-1.8520832)">
            <rect
               style="fill:#ffffff;fill-opacity:1;stroke-width:0.16482;stroke-linejoin:round;paint-order:stroke fill markers"
               id="rect2-3"
               width="1.8520833"
               height="0.26458335"
               x="3.0081975"
               y="6.0278993"
               rx="0"
               ry="0" />
            <rect
               style="fill:#ffffff;fill-opacity:1;stroke-width:0.16482;stroke-linejoin:round;paint-order:stroke fill markers"
               id="rect2-3-7"
               width="0.26458335"
               height="0.75595242"
               x="5.1377873"
               y="6.4568205"
               rx="0"
               ry="0" />
            <rect
               style="fill:#ffffff;fill-opacity:1;stroke-width:0.19466;stroke-linejoin:round;paint-order:stroke fill markers"
               id="rect2-3-7-7"
               width="0.26458335"
               height="1.0544467"
               x="5.5744519"
               y="6.1583261"
               rx="0"
               ry="0" />
            <rect
               style="fill:#ffffff;fill-opacity:1;stroke-width:0.155038;stroke-linejoin:round;paint-order:stroke fill markers"
               id="rect2-3-7-4"
               width="0.26458335"
               height="0.66889155"
               x="6.011116"
               y="6.5438814"
               rx="0"
               ry="0" />
            <rect
               style="fill:#ffffff;fill-opacity:1;stroke-width:0.206902;stroke-linejoin:round;paint-order:stroke fill markers"
               id="rect2-3-7-4-0"
               width="0.26458335"
               height="1.1912566"
               x="6.4477806"
               y="6.0215163"
               rx="0"
               ry="0" />
            <rect
               style="fill:#ffffff;fill-opacity:1;stroke-width:0.16482;stroke-linejoin:round;paint-order:stroke fill markers"
               id="rect2-3-3"
               width="1.8520833"
               height="0.26458335"
               x="3.0081975"
               y="6.4880443"
               rx="0"
               ry="0" />
            <rect
               style="fill:#ffffff;fill-opacity:1;stroke-width:0.16482;stroke-linejoin:round;paint-order:stroke fill markers"
               id="rect2-3-3-3"
               width="1.8520833"
               height="0.26458335"
               x="3.0081975"
               y="6.9481897"
               rx="0"
               ry="0" />
          </g>
        </g>
      </g>
      <g
         id="g14"
         transform="matrix(2.7755687,0.00175127,-0.00175127,2.7755687,-12.13987,-1.8112679)"
         style="opacity:1;fill:#0000ee;fill-opacity:1;stroke-width:1.00013;stroke-dasharray:none">
        <path
           id="rect3-2"
           style="fill:#0000ee;fill-opacity:1;stroke-width:1.00013;stroke-linejoin:round;stroke-dasharray:none;paint-order:stroke fill markers"
           d="m 5.2629079,1.2875235 c -0.2175803,0 -0.396875,0.1792948 -0.396875,0.3968751 v 5.167e-4 h 0.2656168 v -5.167e-4 c 0,-0.075578 0.05568,-0.1312582 0.1312582,-0.1312582 H 5.5383433 C 5.5721851,1.4414838 5.6476618,1.3467848 5.7460825,1.2875235 Z m 0.7208862,0 c -0.217032,0 -0.3984253,0.1781511 -0.3984253,0.3963583 v 0.00103 h 0.2656169 c -2.5e-6,-3.458e-4 0,-6.87e-4 0,-0.00103 0,-0.074951 0.056682,-0.1307414 0.1328084,-0.1307414 h 0.5291667 c 0.076126,0 0.1307414,0.054615 0.1307414,0.1307414 0,3.394e-4 2.2e-6,6.949e-4 0,0.00103 H 6.909319 v -0.00103 c 0,-0.217032 -0.1793262,-0.3963583 -0.3963582,-0.3963583 z m 0,0.3322795 c -0.030193,0 -0.052148,0.013722 -0.061495,0.03669 v 5.167e-4 c 0.00171,0.00874 0.00258,0.017942 0.00258,0.027389 v 5.167e-4 h 0.2656168 v -5.167e-4 c 0,-0.021885 -0.00217,-0.043637 -0.00568,-0.064596 z" />
        <path
           id="rect3-2-5"
           style="fill:#0000ee;fill-opacity:1;stroke-width:1.00013;stroke-linejoin:round;stroke-dasharray:none;paint-order:stroke fill markers"
           d="m 6.5124422,2.079835 c 0.2175802,0 0.3968749,-0.1792948 0.3968749,-0.3968751 V 1.6824432 H 6.6437002 v 5.167e-4 c 0,0.075578 -0.05568,0.1312582 -0.1312581,0.1312582 H 6.2370069 C 6.2031649,1.9258747 6.1276883,2.0205737 6.0292676,2.079835 Z m -0.7208862,0 c 0.217032,0 0.3984253,-0.1781511 0.3984253,-0.3963583 v -0.00103 H 5.9243644 c 2.5e-6,3.458e-4 0,6.87e-4 0,0.00103 0,0.074951 -0.056682,0.1307414 -0.1328084,0.1307414 H 5.2623893 c -0.076126,0 -0.1307414,-0.054615 -0.1307414,-0.1307414 0,-3.394e-4 -2.2e-6,-6.949e-4 0,-0.00103 H 4.8660311 v 0.00103 c 0,0.217032 0.1793262,0.3963583 0.3963582,0.3963583 z m 0,-0.3322795 c 0.030193,0 0.052148,-0.013722 0.061495,-0.03669 v -5.167e-4 c -0.00171,-0.00874 -0.00258,-0.017942 -0.00258,-0.027389 V 1.6824431 H 5.5848542 v 5.167e-4 c 0,0.021885 0.00217,0.043637 0.00568,0.064596 z" />
      </g>
    </g>
  </g>
</svg>
